<svg width="683" height="683" viewBox="0 0 683 683" fill="none" xmlns="http://www.w3.org/2000/svg">
<g clip-path="url(#clip0_383_3)">
<path d="M284.8 48.2667C283.733 50 219.2 161.6 141.467 296.4L-7.62939e-06 541.467L27.6 589.333L55.3333 637.333H341.333H627.333L655.067 589.333L682.667 541.467L539.6 293.733L396.667 46L341.733 45.6L286.8 45.3333L284.8 48.2667ZM346.133 92.2667C344.267 95.4667 292.4 185.333 230.8 292L118.8 486L274.667 486.4L430.533 486.667L440 503.467C445.333 512.667 449.333 520.4 449.067 520.8C448.667 521.067 360.8 521.2 253.6 521.067L58.9333 520.667L180.133 310.667C246.8 195.2 303.2 97.4667 305.333 93.6L309.333 86.6667H329.467H349.467L346.133 92.2667ZM510.533 324.4L635.733 541.467L626.267 558C620.933 567.2 616.267 574.667 615.867 574.667C615.333 574.667 563.2 484.933 499.867 375.333C427.6 250.133 384.4 176.533 383.867 177.6C383.333 178.533 348.267 239.067 306.133 312L229.6 444.667L209.333 445.067L189.2 445.467L192.933 438.933C223.067 386.4 384.667 106.933 384.933 107.067C385.067 107.333 441.6 205.067 510.533 324.4ZM480 422C531.6 511.467 575.333 587.2 577.067 590.4L580.267 596L329.2 595.733L78.1333 595.333L68.4 578.667L58.8 562L289.333 561.6C416.267 561.467 520 561.067 520 560.667C520 560.267 518.267 557.2 516.133 553.733C509.333 542.4 367.733 296.8 366.4 293.867C365.333 291.6 366.8 288.133 374.8 274.267C380.267 264.933 384.933 257.867 385.467 258.4C385.867 258.933 428.4 332.533 480 422ZM374.133 389.067L406.133 444.667L373.733 445.067C355.867 445.2 326.8 445.2 308.933 445.067L276.533 444.667L308.533 389.067C326.267 358.4 340.933 333.333 341.333 333.333C341.733 333.333 356.4 358.4 374.133 389.067Z" fill="white"/>
</g>
<defs>
<clipPath id="clip0_383_3">
<rect width="682.667" height="682.667" fill="white"/>
</clipPath>
</defs>
</svg>
